<mxfile host="app.diagrams.net" modified="2021-08-11T04:12:35.339Z" agent="5.0 (Windows NT 10.0; Win64; x64) AppleWebKit/537.36 (KHTML, like Gecko) Chrome/92.0.4515.131 Safari/537.36" etag="TtLenBn3v4JCZGeSINTr" version="14.9.5" type="github">
  <diagram id="TpO55HiF2p7U9sS2nbdg" name="Page-1">
    <mxGraphModel dx="1888" dy="579" grid="1" gridSize="10" guides="1" tooltips="1" connect="1" arrows="1" fold="1" page="1" pageScale="1" pageWidth="850" pageHeight="1100" math="0" shadow="0">
      <root>
        <mxCell id="0" />
        <mxCell id="1" parent="0" />
        <mxCell id="n1blC0LjS4n-5haaT63g-3" value="" style="edgeStyle=orthogonalEdgeStyle;rounded=0;orthogonalLoop=1;jettySize=auto;html=1;" edge="1" parent="1" source="n1blC0LjS4n-5haaT63g-1" target="n1blC0LjS4n-5haaT63g-2">
          <mxGeometry relative="1" as="geometry" />
        </mxCell>
        <mxCell id="n1blC0LjS4n-5haaT63g-20" style="edgeStyle=orthogonalEdgeStyle;rounded=0;orthogonalLoop=1;jettySize=auto;html=1;entryX=0.75;entryY=0;entryDx=0;entryDy=0;" edge="1" parent="1" source="n1blC0LjS4n-5haaT63g-1" target="n1blC0LjS4n-5haaT63g-15">
          <mxGeometry relative="1" as="geometry" />
        </mxCell>
        <mxCell id="n1blC0LjS4n-5haaT63g-1" value="Main/controller" style="rounded=1;whiteSpace=wrap;html=1;" vertex="1" parent="1">
          <mxGeometry x="120" y="110" width="370" height="60" as="geometry" />
        </mxCell>
        <mxCell id="n1blC0LjS4n-5haaT63g-5" value="" style="edgeStyle=orthogonalEdgeStyle;rounded=0;orthogonalLoop=1;jettySize=auto;html=1;" edge="1" parent="1" source="n1blC0LjS4n-5haaT63g-2" target="n1blC0LjS4n-5haaT63g-4">
          <mxGeometry relative="1" as="geometry" />
        </mxCell>
        <mxCell id="n1blC0LjS4n-5haaT63g-11" value="" style="edgeStyle=orthogonalEdgeStyle;rounded=0;orthogonalLoop=1;jettySize=auto;html=1;" edge="1" parent="1" source="n1blC0LjS4n-5haaT63g-2" target="n1blC0LjS4n-5haaT63g-10">
          <mxGeometry relative="1" as="geometry" />
        </mxCell>
        <mxCell id="n1blC0LjS4n-5haaT63g-2" value="Service interface &amp;amp; impl&amp;nbsp;" style="rounded=1;whiteSpace=wrap;html=1;" vertex="1" parent="1">
          <mxGeometry x="120" y="250" width="370" height="60" as="geometry" />
        </mxCell>
        <mxCell id="n1blC0LjS4n-5haaT63g-7" value="" style="edgeStyle=orthogonalEdgeStyle;rounded=0;orthogonalLoop=1;jettySize=auto;html=1;" edge="1" parent="1" source="n1blC0LjS4n-5haaT63g-4" target="n1blC0LjS4n-5haaT63g-6">
          <mxGeometry relative="1" as="geometry" />
        </mxCell>
        <mxCell id="n1blC0LjS4n-5haaT63g-9" value="" style="edgeStyle=orthogonalEdgeStyle;rounded=0;orthogonalLoop=1;jettySize=auto;html=1;" edge="1" parent="1" source="n1blC0LjS4n-5haaT63g-4" target="n1blC0LjS4n-5haaT63g-8">
          <mxGeometry relative="1" as="geometry" />
        </mxCell>
        <mxCell id="n1blC0LjS4n-5haaT63g-4" value="DAO interface &amp;amp; its implementation" style="rounded=1;whiteSpace=wrap;html=1;" vertex="1" parent="1">
          <mxGeometry x="120" y="390" width="370" height="60" as="geometry" />
        </mxCell>
        <mxCell id="n1blC0LjS4n-5haaT63g-6" value="DB" style="shape=cylinder;whiteSpace=wrap;html=1;boundedLbl=1;backgroundOutline=1;rounded=1;" vertex="1" parent="1">
          <mxGeometry x="275" y="520" width="60" height="80" as="geometry" />
        </mxCell>
        <mxCell id="n1blC0LjS4n-5haaT63g-8" value="to connect with DB related activites" style="whiteSpace=wrap;html=1;rounded=1;" vertex="1" parent="1">
          <mxGeometry x="695" y="390" width="120" height="60" as="geometry" />
        </mxCell>
        <mxCell id="n1blC0LjS4n-5haaT63g-10" value="BL for ur application." style="whiteSpace=wrap;html=1;rounded=1;" vertex="1" parent="1">
          <mxGeometry x="695" y="250" width="120" height="60" as="geometry" />
        </mxCell>
        <mxCell id="n1blC0LjS4n-5haaT63g-16" style="edgeStyle=orthogonalEdgeStyle;rounded=0;orthogonalLoop=1;jettySize=auto;html=1;entryX=-0.008;entryY=0.229;entryDx=0;entryDy=0;entryPerimeter=0;" edge="1" parent="1" source="n1blC0LjS4n-5haaT63g-13" target="n1blC0LjS4n-5haaT63g-15">
          <mxGeometry relative="1" as="geometry" />
        </mxCell>
        <mxCell id="n1blC0LjS4n-5haaT63g-13" value="request" style="rounded=1;whiteSpace=wrap;html=1;" vertex="1" parent="1">
          <mxGeometry x="-410" y="200" width="120" height="60" as="geometry" />
        </mxCell>
        <mxCell id="n1blC0LjS4n-5haaT63g-14" value="response" style="rounded=1;whiteSpace=wrap;html=1;" vertex="1" parent="1">
          <mxGeometry x="-410" y="310" width="120" height="60" as="geometry" />
        </mxCell>
        <mxCell id="n1blC0LjS4n-5haaT63g-18" style="edgeStyle=orthogonalEdgeStyle;rounded=0;orthogonalLoop=1;jettySize=auto;html=1;entryX=0.433;entryY=1.033;entryDx=0;entryDy=0;entryPerimeter=0;" edge="1" parent="1" source="n1blC0LjS4n-5haaT63g-15" target="n1blC0LjS4n-5haaT63g-17">
          <mxGeometry relative="1" as="geometry" />
        </mxCell>
        <mxCell id="n1blC0LjS4n-5haaT63g-19" style="edgeStyle=orthogonalEdgeStyle;rounded=0;orthogonalLoop=1;jettySize=auto;html=1;entryX=0;entryY=0.75;entryDx=0;entryDy=0;" edge="1" parent="1" source="n1blC0LjS4n-5haaT63g-15" target="n1blC0LjS4n-5haaT63g-1">
          <mxGeometry relative="1" as="geometry" />
        </mxCell>
        <mxCell id="n1blC0LjS4n-5haaT63g-21" style="edgeStyle=orthogonalEdgeStyle;rounded=0;orthogonalLoop=1;jettySize=auto;html=1;entryX=1;entryY=0.75;entryDx=0;entryDy=0;" edge="1" parent="1" source="n1blC0LjS4n-5haaT63g-15" target="n1blC0LjS4n-5haaT63g-14">
          <mxGeometry relative="1" as="geometry" />
        </mxCell>
        <mxCell id="n1blC0LjS4n-5haaT63g-27" value="" style="edgeStyle=orthogonalEdgeStyle;rounded=0;orthogonalLoop=1;jettySize=auto;html=1;" edge="1" parent="1" source="n1blC0LjS4n-5haaT63g-15" target="n1blC0LjS4n-5haaT63g-26">
          <mxGeometry relative="1" as="geometry" />
        </mxCell>
        <mxCell id="n1blC0LjS4n-5haaT63g-28" style="edgeStyle=orthogonalEdgeStyle;rounded=0;orthogonalLoop=1;jettySize=auto;html=1;" edge="1" parent="1" source="n1blC0LjS4n-5haaT63g-15" target="n1blC0LjS4n-5haaT63g-29">
          <mxGeometry relative="1" as="geometry">
            <mxPoint x="20" y="500" as="targetPoint" />
          </mxGeometry>
        </mxCell>
        <mxCell id="n1blC0LjS4n-5haaT63g-15" value="Dispatcher Servlet" style="rounded=1;whiteSpace=wrap;html=1;" vertex="1" parent="1">
          <mxGeometry x="-170" y="160" width="120" height="310" as="geometry" />
        </mxCell>
        <mxCell id="n1blC0LjS4n-5haaT63g-17" value="HandlerMapper(endpoint/ url mapping with controller&#39;s method." style="rounded=1;whiteSpace=wrap;html=1;" vertex="1" parent="1">
          <mxGeometry x="-70" width="210" height="60" as="geometry" />
        </mxCell>
        <mxCell id="n1blC0LjS4n-5haaT63g-22" value="if ur r handling rest api then it will return json/xml/pdf/csv&amp;nbsp;" style="text;html=1;strokeColor=none;fillColor=none;align=center;verticalAlign=middle;whiteSpace=wrap;rounded=0;" vertex="1" parent="1">
          <mxGeometry x="-340" y="400" width="140" height="60" as="geometry" />
        </mxCell>
        <mxCell id="n1blC0LjS4n-5haaT63g-24" value="" style="edgeStyle=orthogonalEdgeStyle;rounded=0;orthogonalLoop=1;jettySize=auto;html=1;" edge="1" parent="1" source="n1blC0LjS4n-5haaT63g-23" target="n1blC0LjS4n-5haaT63g-15">
          <mxGeometry relative="1" as="geometry" />
        </mxCell>
        <mxCell id="n1blC0LjS4n-5haaT63g-25" value="" style="edgeStyle=orthogonalEdgeStyle;rounded=0;orthogonalLoop=1;jettySize=auto;html=1;" edge="1" parent="1" source="n1blC0LjS4n-5haaT63g-23" target="n1blC0LjS4n-5haaT63g-15">
          <mxGeometry relative="1" as="geometry" />
        </mxCell>
        <mxCell id="n1blC0LjS4n-5haaT63g-23" value="model and view object" style="text;html=1;strokeColor=none;fillColor=none;align=center;verticalAlign=middle;whiteSpace=wrap;rounded=0;" vertex="1" parent="1">
          <mxGeometry x="-40" y="180" width="40" height="20" as="geometry" />
        </mxCell>
        <mxCell id="n1blC0LjS4n-5haaT63g-26" value="View Resolver" style="whiteSpace=wrap;html=1;rounded=1;" vertex="1" parent="1">
          <mxGeometry x="-170" y="675" width="120" height="60" as="geometry" />
        </mxCell>
        <mxCell id="n1blC0LjS4n-5haaT63g-30" style="edgeStyle=orthogonalEdgeStyle;rounded=0;orthogonalLoop=1;jettySize=auto;html=1;entryX=0.925;entryY=1.003;entryDx=0;entryDy=0;entryPerimeter=0;" edge="1" parent="1" source="n1blC0LjS4n-5haaT63g-29" target="n1blC0LjS4n-5haaT63g-15">
          <mxGeometry relative="1" as="geometry" />
        </mxCell>
        <mxCell id="n1blC0LjS4n-5haaT63g-29" value="View Page/JSP" style="rounded=1;whiteSpace=wrap;html=1;" vertex="1" parent="1">
          <mxGeometry x="-25" y="520" width="120" height="60" as="geometry" />
        </mxCell>
        <mxCell id="n1blC0LjS4n-5haaT63g-31" value="JSP page response to the client" style="text;html=1;strokeColor=none;fillColor=none;align=center;verticalAlign=middle;whiteSpace=wrap;rounded=0;" vertex="1" parent="1">
          <mxGeometry x="-310" y="480" width="120" height="70" as="geometry" />
        </mxCell>
        <mxCell id="n1blC0LjS4n-5haaT63g-35" value="" style="edgeStyle=orthogonalEdgeStyle;rounded=0;orthogonalLoop=1;jettySize=auto;html=1;" edge="1" parent="1" source="n1blC0LjS4n-5haaT63g-32" target="n1blC0LjS4n-5haaT63g-34">
          <mxGeometry relative="1" as="geometry" />
        </mxCell>
        <mxCell id="n1blC0LjS4n-5haaT63g-32" value="if you are working with REST" style="rounded=1;whiteSpace=wrap;html=1;" vertex="1" parent="1">
          <mxGeometry x="190" y="920" width="120" height="60" as="geometry" />
        </mxCell>
        <mxCell id="n1blC0LjS4n-5haaT63g-37" value="" style="edgeStyle=orthogonalEdgeStyle;rounded=0;orthogonalLoop=1;jettySize=auto;html=1;" edge="1" parent="1" source="n1blC0LjS4n-5haaT63g-33" target="n1blC0LjS4n-5haaT63g-36">
          <mxGeometry relative="1" as="geometry" />
        </mxCell>
        <mxCell id="n1blC0LjS4n-5haaT63g-33" value="if you are working with MVC" style="rounded=1;whiteSpace=wrap;html=1;" vertex="1" parent="1">
          <mxGeometry x="390" y="920" width="120" height="60" as="geometry" />
        </mxCell>
        <mxCell id="n1blC0LjS4n-5haaT63g-34" value="when controller will share the response then it will share that response directly to caller/client" style="whiteSpace=wrap;html=1;rounded=1;" vertex="1" parent="1">
          <mxGeometry x="190" y="1060" width="120" height="80" as="geometry" />
        </mxCell>
        <mxCell id="n1blC0LjS4n-5haaT63g-39" value="" style="edgeStyle=orthogonalEdgeStyle;rounded=0;orthogonalLoop=1;jettySize=auto;html=1;" edge="1" parent="1" source="n1blC0LjS4n-5haaT63g-36" target="n1blC0LjS4n-5haaT63g-38">
          <mxGeometry relative="1" as="geometry" />
        </mxCell>
        <mxCell id="n1blC0LjS4n-5haaT63g-36" value="Model and view object" style="whiteSpace=wrap;html=1;rounded=1;" vertex="1" parent="1">
          <mxGeometry x="390" y="1060" width="120" height="60" as="geometry" />
        </mxCell>
        <mxCell id="n1blC0LjS4n-5haaT63g-41" value="" style="edgeStyle=orthogonalEdgeStyle;rounded=0;orthogonalLoop=1;jettySize=auto;html=1;" edge="1" parent="1" source="n1blC0LjS4n-5haaT63g-38" target="n1blC0LjS4n-5haaT63g-40">
          <mxGeometry relative="1" as="geometry" />
        </mxCell>
        <mxCell id="n1blC0LjS4n-5haaT63g-38" value="DS" style="whiteSpace=wrap;html=1;rounded=1;" vertex="1" parent="1">
          <mxGeometry x="390" y="1200" width="120" height="60" as="geometry" />
        </mxCell>
        <mxCell id="n1blC0LjS4n-5haaT63g-43" value="" style="edgeStyle=orthogonalEdgeStyle;rounded=0;orthogonalLoop=1;jettySize=auto;html=1;" edge="1" parent="1" source="n1blC0LjS4n-5haaT63g-40" target="n1blC0LjS4n-5haaT63g-42">
          <mxGeometry relative="1" as="geometry" />
        </mxCell>
        <mxCell id="n1blC0LjS4n-5haaT63g-40" value="then it will connect to VR" style="whiteSpace=wrap;html=1;rounded=1;" vertex="1" parent="1">
          <mxGeometry x="390" y="1330" width="120" height="60" as="geometry" />
        </mxCell>
        <mxCell id="n1blC0LjS4n-5haaT63g-45" value="" style="edgeStyle=orthogonalEdgeStyle;rounded=0;orthogonalLoop=1;jettySize=auto;html=1;" edge="1" parent="1" source="n1blC0LjS4n-5haaT63g-42" target="n1blC0LjS4n-5haaT63g-44">
          <mxGeometry relative="1" as="geometry" />
        </mxCell>
        <mxCell id="n1blC0LjS4n-5haaT63g-42" value="will share the page name" style="whiteSpace=wrap;html=1;rounded=1;" vertex="1" parent="1">
          <mxGeometry x="390" y="1470" width="120" height="60" as="geometry" />
        </mxCell>
        <mxCell id="n1blC0LjS4n-5haaT63g-47" value="" style="edgeStyle=orthogonalEdgeStyle;rounded=0;orthogonalLoop=1;jettySize=auto;html=1;" edge="1" parent="1" source="n1blC0LjS4n-5haaT63g-44" target="n1blC0LjS4n-5haaT63g-46">
          <mxGeometry relative="1" as="geometry" />
        </mxCell>
        <mxCell id="n1blC0LjS4n-5haaT63g-44" value="this page name is shared with DS" style="whiteSpace=wrap;html=1;rounded=1;" vertex="1" parent="1">
          <mxGeometry x="390" y="1610" width="120" height="60" as="geometry" />
        </mxCell>
        <mxCell id="n1blC0LjS4n-5haaT63g-49" value="" style="edgeStyle=orthogonalEdgeStyle;rounded=0;orthogonalLoop=1;jettySize=auto;html=1;" edge="1" parent="1" source="n1blC0LjS4n-5haaT63g-46" target="n1blC0LjS4n-5haaT63g-48">
          <mxGeometry relative="1" as="geometry" />
        </mxCell>
        <mxCell id="n1blC0LjS4n-5haaT63g-46" value="Then DS will connect with Page &amp;amp; collect the jsp response" style="whiteSpace=wrap;html=1;rounded=1;" vertex="1" parent="1">
          <mxGeometry x="390" y="1750" width="120" height="60" as="geometry" />
        </mxCell>
        <mxCell id="n1blC0LjS4n-5haaT63g-48" value="client." style="whiteSpace=wrap;html=1;rounded=1;" vertex="1" parent="1">
          <mxGeometry x="390" y="1890" width="120" height="60" as="geometry" />
        </mxCell>
      </root>
    </mxGraphModel>
  </diagram>
</mxfile>
